<svg width="246" height="44" viewBox="0 0 246 44" fill="none" xmlns="http://www.w3.org/2000/svg">
<path d="M36.351 8.87634L35.5902 13.3144L35.544 13.585H6.35486C6.35486 12.2853 6.78037 11.1081 7.47182 10.2547C8.16097 9.40363 9.11374 8.87402 10.1683 8.87402H36.3487L36.351 8.87634Z" fill="#E14D2A"/>
<path d="M34.8274 17.7549L34.7812 18.0255L34.0203 22.4659H12.717C12.717 21.1661 13.1426 19.989 13.834 19.1356C14.5231 18.2845 15.4759 17.7549 16.5304 17.7549H34.8251H34.8274Z" fill="#E14D2A"/>
<path d="M33.2704 26.6307L32.461 31.3394H19.0459C19.0459 30.0397 19.4506 28.8625 20.105 28.0091C20.7595 27.1557 21.6614 26.6284 22.6604 26.6284H33.2704V26.6307Z" fill="#E14D2A"/>
<path d="M37.845 0L37.0356 4.70867H0C0 3.40893 0.520325 2.23176 1.3621 1.37837C2.20387 0.527297 3.3694 0 4.65287 0H37.845Z" fill="#E14D2A"/>
<path d="M65.545 13.3143L58.7715 4.70867L55.0622 0H41.2955L40.4861 4.70867L39.0084 13.3143L38.199 18.0229L36.7213 26.6285L35.9119 31.3372H67.7304L68.5398 26.6285L70.0175 18.0229L70.6187 14.5261C70.7274 13.8924 70.2395 13.3143 69.5966 13.3143H65.5473H65.545ZM45.2639 4.70867H52.7774L59.5508 13.3143H43.7861L45.2639 4.70867ZM63.7597 26.6285H41.499L42.9767 18.0229H65.2397L63.7597 26.6285Z" fill="white"/>
<path d="M84.1244 40.3008H82.7266L87.3161 31.5735H88.8374L90.5292 40.3008H89.1315L87.8573 33.1587H87.7891L84.1244 40.3008ZM84.9255 36.8832H89.4596L89.2721 37.9911H84.738L84.9255 36.8832ZM96.2852 37.5863L96.9244 33.7553H98.2028L97.1119 40.3008H95.8591L96.0508 39.1673H95.9827C95.7781 39.5167 95.4883 39.8079 95.1133 40.0408C94.7412 40.271 94.3094 40.386 93.8179 40.386C93.3974 40.386 93.0409 40.2937 92.7483 40.109C92.4585 39.9215 92.2525 39.6445 92.1304 39.2781C92.0082 38.9116 91.9912 38.4585 92.0793 37.9187L92.7781 33.7553H94.0523L93.3832 37.7653C93.3122 38.2113 93.379 38.5664 93.5835 38.8306C93.7881 39.0948 94.0864 39.2269 94.4784 39.2269C94.717 39.2269 94.9642 39.1673 95.2199 39.0479C95.4756 38.9286 95.7014 38.7482 95.8974 38.5067C96.0963 38.2653 96.2256 37.9585 96.2852 37.5863ZM102.97 33.7553L102.804 34.7781H99.2288L99.395 33.7553H102.97ZM100.609 32.1871H101.884L100.852 38.3789C100.813 38.6261 100.82 38.8121 100.874 38.9371C100.928 39.0593 101.01 39.1431 101.121 39.1886C101.234 39.2312 101.361 39.2525 101.5 39.2525C101.602 39.2525 101.692 39.2454 101.769 39.2312C101.845 39.217 101.906 39.2056 101.952 39.1971L102.02 40.2496C101.935 40.2781 101.82 40.3065 101.675 40.3349C101.533 40.3661 101.359 40.3832 101.155 40.386C100.82 40.3917 100.517 40.332 100.247 40.207C99.9773 40.0792 99.7756 39.886 99.6421 39.6275C99.5086 39.3661 99.4759 39.038 99.5441 38.6431L100.609 32.1871ZM106.005 40.4329C105.383 40.4329 104.863 40.2908 104.446 40.0067C104.028 39.7198 103.734 39.3192 103.564 38.805C103.396 38.288 103.368 37.6871 103.478 37.0025C103.586 36.332 103.804 35.7468 104.13 35.2468C104.46 34.7468 104.872 34.359 105.366 34.0835C105.863 33.8079 106.416 33.6701 107.024 33.6701C107.646 33.6701 108.164 33.8136 108.579 34.1005C108.997 34.3874 109.291 34.7894 109.461 35.3065C109.632 35.8235 109.662 36.4258 109.551 37.1133C109.443 37.7781 109.223 38.3604 108.89 38.8604C108.561 39.3576 108.149 39.744 107.655 40.0195C107.16 40.2951 106.611 40.4329 106.005 40.4329ZM106.078 39.3633C106.487 39.3633 106.843 39.2553 107.147 39.0394C107.454 38.8235 107.704 38.5366 107.897 38.1786C108.091 37.8207 108.223 37.4286 108.294 37.0025C108.359 36.5906 108.358 36.2141 108.289 35.8732C108.224 35.5295 108.082 35.2539 107.863 35.0465C107.645 34.8391 107.341 34.7354 106.951 34.7354C106.542 34.7354 106.183 34.8448 105.873 35.0636C105.566 35.2795 105.316 35.5678 105.123 35.9286C104.933 36.2894 104.804 36.6829 104.736 37.109C104.67 37.5181 104.67 37.8945 104.736 38.2383C104.801 38.5792 104.943 38.8519 105.162 39.0565C105.38 39.261 105.686 39.3633 106.078 39.3633ZM119.544 33.9173C119.547 33.4883 119.407 33.1602 119.126 32.9329C118.848 32.7056 118.459 32.592 117.959 32.592C117.601 32.592 117.281 32.6488 117 32.7624C116.721 32.8732 116.494 33.0266 116.318 33.2227C116.145 33.4158 116.038 33.636 115.998 33.8832C115.961 34.0906 115.98 34.2695 116.054 34.4201C116.13 34.5707 116.24 34.6971 116.382 34.7994C116.527 34.8988 116.686 34.9826 116.859 35.0508C117.032 35.1161 117.2 35.1701 117.362 35.2127L118.18 35.4343C118.444 35.5025 118.713 35.5948 118.986 35.7113C119.258 35.8278 119.504 35.9812 119.723 36.1715C119.941 36.3619 120.105 36.5977 120.213 36.8789C120.321 37.1602 120.342 37.4968 120.277 37.8888C120.191 38.3832 119.991 38.8221 119.676 39.2056C119.361 39.5891 118.944 39.8917 118.427 40.1133C117.91 40.3349 117.311 40.4457 116.629 40.4457C115.976 40.4457 115.426 40.342 114.98 40.1346C114.537 39.9272 114.211 39.6332 114.004 39.2525C113.797 38.869 113.723 38.4144 113.782 37.8888H115.108C115.076 38.2042 115.133 38.467 115.278 38.6772C115.426 38.8846 115.633 39.0394 115.9 39.1417C116.167 39.2411 116.47 39.2908 116.808 39.2908C117.183 39.2908 117.525 39.2326 117.835 39.1161C118.145 38.9968 118.4 38.832 118.602 38.6218C118.804 38.4087 118.927 38.1602 118.973 37.8761C119.018 37.6175 118.981 37.4059 118.862 37.2411C118.745 37.0763 118.569 36.94 118.334 36.832C118.101 36.7241 117.835 36.6289 117.537 36.5465L116.552 36.2653C115.885 36.0749 115.379 35.7951 115.035 35.4258C114.691 35.0565 114.568 34.5678 114.664 33.9599C114.75 33.457 114.96 33.0181 115.295 32.6431C115.63 32.2681 116.048 31.9769 116.548 31.7695C117.048 31.5593 117.591 31.4542 118.176 31.4542C118.767 31.4542 119.27 31.5593 119.684 31.7695C120.099 31.9798 120.406 32.2695 120.605 32.6388C120.804 33.0082 120.873 33.4343 120.814 33.9173H119.544ZM123.265 36.4144L122.626 40.3008H121.352L122.8 31.5735H124.058L123.521 34.8207H123.602C123.809 34.4656 124.087 34.1857 124.437 33.9812C124.789 33.7738 125.221 33.6701 125.732 33.6701C126.181 33.6701 126.558 33.7624 126.862 33.9471C127.168 34.1317 127.384 34.4073 127.509 34.7738C127.637 35.1374 127.657 35.592 127.569 36.1374L126.87 40.3008H125.596L126.261 36.2908C126.34 35.8107 126.278 35.4386 126.073 35.1744C125.869 34.9073 125.549 34.7738 125.114 34.7738C124.81 34.7738 124.529 34.8377 124.271 34.9656C124.015 35.0934 123.799 35.2809 123.623 35.5281C123.447 35.7724 123.327 36.0678 123.265 36.4144ZM128.566 40.3008L129.657 33.7553H130.931L129.84 40.3008H128.566ZM130.56 32.7326C130.339 32.7326 130.151 32.6587 129.998 32.511C129.847 32.3604 129.778 32.1815 129.789 31.9741C129.8 31.7638 129.889 31.5849 130.053 31.4371C130.218 31.2866 130.41 31.2113 130.629 31.2113C130.85 31.2113 131.036 31.2866 131.187 31.4371C131.337 31.5849 131.408 31.7638 131.4 31.9741C131.389 32.1815 131.3 32.3604 131.136 32.511C130.974 32.6587 130.782 32.7326 130.56 32.7326ZM131.15 42.7553L132.658 33.7553H133.902L133.728 34.8164H133.834C133.931 34.68 134.061 34.5224 134.226 34.3434C134.394 34.1644 134.614 34.0082 134.887 33.8746C135.16 33.7383 135.499 33.6701 135.905 33.6701C136.434 33.6701 136.881 33.8036 137.248 34.0707C137.614 34.3377 137.875 34.7227 138.032 35.2255C138.188 35.7283 138.208 36.3335 138.091 37.0408C137.975 37.7482 137.756 38.3548 137.435 38.8604C137.114 39.3633 136.725 39.7511 136.267 40.0238C135.813 40.2937 135.32 40.4286 134.789 40.4286C134.391 40.4286 134.077 40.3619 133.847 40.2283C133.62 40.0948 133.451 39.9386 133.34 39.7596C133.229 39.5806 133.145 39.4215 133.088 39.2823H133.012L132.432 42.7553H131.15ZM133.361 37.0281C133.287 37.4883 133.287 37.8917 133.361 38.2383C133.435 38.5849 133.583 38.8562 133.804 39.0522C134.029 39.2454 134.324 39.342 134.691 39.342C135.071 39.342 135.405 39.2411 135.692 39.0394C135.979 38.8349 136.216 38.5579 136.404 38.2085C136.594 37.859 136.726 37.4656 136.8 37.0281C136.871 36.5962 136.87 36.2085 136.796 35.8647C136.725 35.521 136.579 35.2496 136.357 35.0508C136.135 34.8519 135.833 34.7525 135.449 34.7525C135.077 34.7525 134.748 34.8477 134.461 35.038C134.177 35.2283 133.941 35.494 133.753 35.8349C133.566 36.1758 133.435 36.5735 133.361 37.0281ZM138.568 42.7553L140.076 33.7553H141.32L141.146 34.8164H141.252C141.349 34.68 141.479 34.5224 141.644 34.3434C141.812 34.1644 142.032 34.0082 142.305 33.8746C142.577 33.7383 142.917 33.6701 143.323 33.6701C143.852 33.6701 144.299 33.8036 144.666 34.0707C145.032 34.3377 145.293 34.7227 145.45 35.2255C145.606 35.7283 145.626 36.3335 145.509 37.0408C145.393 37.7482 145.174 38.3548 144.853 38.8604C144.532 39.3633 144.143 39.7511 143.685 40.0238C143.231 40.2937 142.738 40.4286 142.207 40.4286C141.809 40.4286 141.495 40.3619 141.265 40.2283C141.038 40.0948 140.869 39.9386 140.758 39.7596C140.647 39.5806 140.563 39.4215 140.506 39.2823H140.43L139.85 42.7553H138.568ZM140.779 37.0281C140.705 37.4883 140.705 37.8917 140.779 38.2383C140.853 38.5849 141.001 38.8562 141.222 39.0522C141.447 39.2454 141.742 39.342 142.109 39.342C142.489 39.342 142.823 39.2411 143.11 39.0394C143.397 38.8349 143.634 38.5579 143.822 38.2085C144.012 37.859 144.144 37.4656 144.218 37.0281C144.289 36.5962 144.288 36.2085 144.214 35.8647C144.143 35.521 143.997 35.2496 143.775 35.0508C143.553 34.8519 143.251 34.7525 142.867 34.7525C142.495 34.7525 142.166 34.8477 141.879 35.038C141.595 35.2283 141.359 35.494 141.171 35.8349C140.984 36.1758 140.853 36.5735 140.779 37.0281ZM146.39 40.3008L147.481 33.7553H148.755L147.664 40.3008H146.39ZM148.385 32.7326C148.163 32.7326 147.976 32.6587 147.822 32.511C147.672 32.3604 147.602 32.1815 147.613 31.9741C147.625 31.7638 147.713 31.5849 147.878 31.4371C148.042 31.2866 148.234 31.2113 148.453 31.2113C148.674 31.2113 148.861 31.2866 149.011 31.4371C149.162 31.5849 149.233 31.7638 149.224 31.9741C149.213 32.1815 149.125 32.3604 148.96 32.511C148.798 32.6587 148.606 32.7326 148.385 32.7326ZM151.296 36.4144L150.657 40.3008H149.383L150.474 33.7553H151.697L151.518 34.8207H151.599C151.806 34.4712 152.089 34.1928 152.447 33.9854C152.808 33.7752 153.234 33.6701 153.725 33.6701C154.168 33.6701 154.541 33.7638 154.842 33.9513C155.146 34.136 155.36 34.4116 155.485 34.7781C155.613 35.1445 155.633 35.5977 155.545 36.1374L154.846 40.3008H153.572L154.241 36.2908C154.318 35.8164 154.255 35.4457 154.053 35.1786C153.854 34.9087 153.538 34.7738 153.103 34.7738C152.808 34.7738 152.533 34.8377 152.281 34.9656C152.031 35.0934 151.819 35.2809 151.646 35.5281C151.475 35.7724 151.359 36.0678 151.296 36.4144ZM158.886 42.8917C158.363 42.8917 157.925 42.8235 157.573 42.6871C157.224 42.5508 156.948 42.3704 156.747 42.146C156.548 41.9215 156.41 41.6758 156.333 41.4087L157.509 40.957C157.566 41.082 157.646 41.2141 157.748 41.3533C157.85 41.4954 158.002 41.6161 158.204 41.7156C158.408 41.815 158.688 41.8647 159.043 41.8647C159.526 41.8647 159.948 41.7468 160.309 41.511C160.67 41.2781 160.893 40.9059 160.978 40.3945L161.178 39.1076H161.097C161.001 39.2468 160.867 39.4016 160.697 39.5721C160.526 39.7425 160.306 39.8903 160.036 40.0153C159.766 40.1403 159.431 40.2028 159.031 40.2028C158.514 40.2028 158.068 40.082 157.693 39.8406C157.32 39.5962 157.053 39.2369 156.891 38.7624C156.729 38.2852 156.707 37.6985 156.823 37.0025C156.937 36.3065 157.153 35.7099 157.471 35.2127C157.792 34.7156 158.181 34.3349 158.639 34.0707C159.099 33.8036 159.592 33.6701 160.117 33.6701C160.524 33.6701 160.84 33.7383 161.068 33.8746C161.298 34.0082 161.468 34.1644 161.579 34.3434C161.69 34.5224 161.771 34.68 161.822 34.8164H161.916L162.09 33.7553H163.339L162.231 40.4457C162.14 41.0082 161.934 41.4698 161.613 41.8306C161.295 42.1914 160.899 42.4585 160.424 42.6317C159.952 42.805 159.44 42.8917 158.886 42.8917ZM159.465 39.146C159.829 39.146 160.153 39.0607 160.437 38.8903C160.724 38.717 160.962 38.4698 161.153 38.1488C161.343 37.8249 161.475 37.4371 161.549 36.9854C161.623 36.5451 161.619 36.1573 161.536 35.8221C161.457 35.4869 161.302 35.2255 161.072 35.038C160.845 34.8477 160.548 34.7525 160.181 34.7525C159.795 34.7525 159.46 34.8519 159.175 35.0508C158.891 35.2468 158.66 35.5138 158.481 35.8519C158.305 36.19 158.181 36.5678 158.11 36.9854C158.042 37.4144 158.043 37.7908 158.114 38.1147C158.188 38.4386 158.336 38.6914 158.558 38.8732C158.779 39.055 159.082 39.146 159.465 39.146Z" fill="#FF7D44"/>
<path d="M91.4729 23.3005C89.1858 23.3005 87.234 22.8912 85.6175 22.0702C83.9987 21.2515 82.7638 20.1136 81.9128 18.6566C81.0595 17.1996 80.6339 15.5229 80.6339 13.6242C80.6339 11.7254 80.9577 9.9192 81.6052 8.26793C82.2527 6.61666 83.1916 5.17815 84.4196 3.94779C85.6499 2.71743 87.116 1.75303 88.8204 1.05228C90.5248 0.351532 92.4234 0 94.5139 0C96.7779 0 98.7205 0.409349 100.337 1.23036C101.956 2.05137 103.195 3.18691 104.058 4.64392C104.92 6.10092 105.353 7.77764 105.353 9.67637C105.353 11.5751 105.024 13.3813 104.365 15.0326C103.706 16.6839 102.763 18.1224 101.535 19.3527C100.307 20.5831 98.843 21.5475 97.1502 22.2482C95.4574 22.949 93.5635 23.3005 91.4729 23.3005ZM91.829 19.6118C93.2536 19.6118 94.537 19.3574 95.6794 18.8509C96.8218 18.3444 97.7977 17.6436 98.6071 16.7486C99.4165 15.8536 100.036 14.8175 100.466 13.6427C100.899 12.4678 101.114 11.2328 101.114 9.9377C101.114 8.64259 100.843 7.61806 100.305 6.66985C99.7657 5.72164 98.9772 4.9862 97.9434 4.47046C96.9074 3.95242 95.6355 3.69339 94.1254 3.69339C92.724 3.69339 91.4452 3.94779 90.2912 4.45428C89.1372 4.96076 88.1567 5.66151 87.3473 6.55653C86.5379 7.45154 85.9228 8.48764 85.5042 9.66249C85.0833 10.8373 84.8729 12.0723 84.8729 13.3674C84.8729 14.6626 85.1365 15.6871 85.6661 16.6353C86.1956 17.5858 86.9773 18.319 88.011 18.8347C89.047 19.3527 90.3189 19.6118 91.829 19.6118Z" fill="white"/>
<path d="M107.39 22.9768L111.92 0.326172H120.657C123.395 0.326172 125.516 0.929788 127.014 2.13933C128.513 3.34657 129.262 5.01866 129.262 7.1556C129.262 9.07514 128.825 10.731 127.951 12.1233C127.077 13.5155 125.833 14.5817 124.214 15.3264C122.595 16.0711 120.676 16.4434 118.456 16.4434H111.079L113.31 14.4383L111.594 22.9815H107.388L107.39 22.9768ZM113.213 14.9194L111.724 12.8819H118.615C120.643 12.8819 122.218 12.4286 123.34 11.522C124.461 10.6154 125.023 9.29023 125.023 7.54182C125.023 6.31146 124.607 5.39563 123.777 4.79201C122.947 4.18839 121.756 3.88543 120.202 3.88543H113.634L115.833 1.78318L113.213 14.9194Z" fill="white"/>
<path d="M134.505 22.9768L138.323 3.88543H130.817L131.529 0.326172H150.716L150.004 3.88543H142.497L138.712 22.9768H134.505Z" fill="white"/>
<path d="M149.389 22.9768L153.919 0.326172H158.126L153.595 22.9768H149.389Z" fill="white"/>
<path d="M159.709 22.9768L164.239 0.326172H167.669L174.269 16.9268L172.488 16.8944L185.399 0.326172H189.023L184.493 22.9768H180.513L183.781 6.47566L184.719 6.50804L173.783 20.3889H171.908L166.182 6.47566L166.991 6.57279L163.724 22.9791H159.711L159.709 22.9768Z" fill="white"/>
<path d="M200.961 23.3006C198.826 23.3006 197.046 22.8797 195.624 22.0379C194.201 21.196 193.202 20.0166 192.631 18.4948C192.06 16.973 191.979 15.1784 192.388 13.1085L194.944 0.326172H199.15L196.595 13.0438C196.401 14.1446 196.352 15.109 196.449 15.9393C196.546 16.7695 196.805 17.461 197.226 18.0091C197.647 18.5596 198.207 18.9643 198.91 19.2233C199.61 19.4823 200.436 19.6118 201.384 19.6118C202.591 19.6118 203.632 19.3852 204.506 18.9319C205.38 18.4786 206.113 17.7617 206.705 16.7811C207.297 15.8005 207.758 14.5424 208.081 13.0114L210.604 0.326172H214.746L212.158 13.3005C211.49 16.6238 210.218 19.1192 208.34 20.7913C206.462 22.4634 204.004 23.2983 200.963 23.2983L200.961 23.3006Z" fill="white"/>
<path d="M216.136 22.9768L220.666 0.326172H224.096L230.696 16.9268L228.915 16.8944L241.826 0.326172H245.45L240.92 22.9768H236.94L240.207 6.47566L241.146 6.50804L230.21 20.3889H228.335L222.609 6.47566L223.418 6.57279L220.15 22.9791H216.138L216.136 22.9768Z" fill="white"/>
</svg>
